<?xml version="1.0" standalone="no"?>
<!DOCTYPE svg PUBLIC "-//W3C//DTD SVG 20010904//EN"
 "http://www.w3.org/TR/2001/REC-SVG-20010904/DTD/svg10.dtd">
<svg version="1.0" xmlns="http://www.w3.org/2000/svg"
 width="225.000000pt" height="225.000000pt" viewBox="0 0 225.000000 225.000000"
 preserveAspectRatio="xMidYMid meet">

<g transform="translate(0.000000,225.000000) scale(0.100000,-0.100000)"
fill="#000000" stroke="none">
<path d="M497 1999 c-96 -23 -182 -94 -226 -188 l-26 -56 0 -630 0 -630 26
-56 c34 -72 96 -134 168 -168 l56 -26 630 0 630 0 56 26 c72 34 134 96 168
168 l26 56 0 630 0 630 -26 56 c-34 72 -96 134 -168 168 l-56 26 -610 2 c-337
1 -627 -3 -648 -8z m951 -489 c20 -11 44 -25 53 -31 11 -9 29 -6 77 14 34 13
62 23 62 20 0 -16 -34 -65 -61 -87 l-32 -27 29 6 c16 4 42 11 58 16 16 5 31 8
32 6 2 -2 -21 -28 -51 -57 -55 -54 -55 -54 -55 -117 0 -179 -129 -391 -300
-494 -170 -101 -441 -107 -598 -12 l-33 20 66 7 c80 8 144 29 199 64 l41 26
-35 6 c-51 9 -94 35 -129 77 -41 50 -39 61 11 65 l43 3 -49 25 c-57 29 -101
87 -115 148 -9 42 -8 44 12 37 12 -4 36 -9 52 -12 l30 -6 -27 22 c-68 54 -92
203 -42 260 2 2 26 -18 54 -45 92 -89 212 -148 348 -169 l42 -7 0 49 c1 166
174 271 318 193z"/>
</g>
</svg>
